<svg width="33" height="19" viewBox="0 0 33 19" fill="none" xmlns="http://www.w3.org/2000/svg">
<path d="M13.79 14.7781C13.2748 14.787 11.4703 14.6706 10.3265 14.5384C7.67363 14.2657 5.0748 13.6221 2.68578 12.54C2.31351 12.3644 1.65896 12.1379 1.98104 11.2788C2.31643 10.3881 2.91653 10.0089 3.54047 10.2566C5.06037 10.8418 6.60531 11.478 8.22619 11.6254C10.5863 11.8429 12.9004 12.1619 15.2237 11.9888C16.259 11.9078 17.2843 11.7699 18.301 11.5788C19.3169 11.375 20.2939 11.0866 21.2435 10.7092C23.0175 9.95723 24.5899 8.83816 26.0268 7.64337C27.2727 6.62219 28.55 5.57082 29.467 4.21251C29.5718 4.05216 29.6471 3.85149 29.7262 3.64928C29.7948 3.44263 29.8513 3.22779 29.9523 3.0472C30.1329 2.75141 30.3315 2.22152 30.5369 1.93309C30.6314 1.81179 30.7072 1.67635 30.7206 1.52702C30.7617 0.856262 31.1385 0.764078 32.0788 1.25369C32.2857 1.36576 32.5925 1.38052 32.6913 1.60196C32.6943 1.60944 32.7072 1.63037 32.7103 1.63785C32.9343 1.99582 32.9249 2.30486 32.8448 2.59033C32.7436 2.86692 32.568 3.12145 32.4631 3.39956C31.3815 6.13284 29.4538 8.44722 27.1854 10.2243C25.7802 11.3146 24.2204 12.1539 22.6304 12.94C22.1997 13.1675 21.7813 13.4466 21.2853 13.535L21.2927 13.532C20.8153 13.7305 20.3245 13.917 19.825 14.0504C17.9345 14.5053 15.9127 14.8086 14.068 14.7435C13.996 14.7379 13.8987 14.7774 13.79 14.7781Z" fill="#B27500"/>
<path d="M4.71828 12.9386C4.88719 13.0966 5.45983 13.6791 5.8518 14.0211C6.76466 14.8183 7.65811 15.6322 8.35179 16.6625C8.46072 16.8232 8.69369 17.0423 8.07278 17.7134C7.42802 18.4116 6.89482 18.6764 6.67513 18.4257C6.14741 17.825 5.70164 17.1255 5.0055 16.711C3.98876 16.1086 3.21793 15.2317 2.33164 14.489L2.02941 14.2283L1.5077 13.7602C1.15117 13.4518 0.818435 13.1162 0.615548 12.7889C0.408922 12.463 0.280315 12.136 0.238559 11.7867C0.187098 11.4458 0.273945 11.0268 0.452858 10.7055L0.473688 10.6708C0.652025 10.3803 0.852577 10.1767 1.1342 9.9793C1.41056 9.77971 1.82518 9.61981 2.2806 9.51744L2.96214 9.34928L3.31112 9.26404L3.51106 9.20889C3.7462 9.14379 3.98591 9.08991 4.22491 9.04504C5.05357 8.89552 5.92627 8.97227 6.76888 8.89993C6.96755 8.88454 7.16889 8.67186 7.38474 8.64512C7.56388 8.62459 7.85762 8.57489 8.04988 8.61879C8.13174 8.63782 8.21809 8.6681 8.28531 8.61897C8.59756 8.40042 8.7494 8.70928 8.82743 9.75886C8.84599 9.98676 8.93016 10.2795 8.87714 10.4493C8.87644 10.4584 8.87198 10.4689 8.86754 10.4794C8.73413 11.1484 8.42671 10.9072 8.16983 10.9724C6.91757 11.2811 5.65373 11.5291 4.39526 11.8011L3.84684 11.9108C3.80638 11.9185 3.76974 11.9247 3.73607 11.9384C3.66721 11.962 3.59982 11.9894 3.63095 12.0553C3.63704 12.0702 3.66948 12.0963 3.7041 12.1171C3.75381 12.1535 3.80483 12.172 3.72601 12.1605C3.77946 12.1954 3.88005 12.2068 3.87631 12.2084C3.87561 12.2174 3.9064 12.2179 3.91236 12.2112L3.9161 12.2096L4.15289 12.4273C4.30824 12.5734 4.45756 12.7263 4.59946 12.8822C4.62286 12.9076 4.68283 12.905 4.71828 12.9386Z" fill="#B27500"/>
</svg>
