<svg width="7" height="6" viewBox="0 0 7 6" fill="none" xmlns="http://www.w3.org/2000/svg">
<path d="M3.64752 2.11595C3.62039 2.10691 3.5571 2.09184 3.49983 2.08883C3.45461 2.08581 3.37021 2.11294 3.32801 2.14309C3.22854 2.21543 3.08084 2.38423 2.93615 2.67963C2.78845 2.95996 2.64678 3.32469 2.47497 3.71052C2.42071 3.83109 2.39057 4.05113 1.71235 3.96673C1.01002 3.88233 0.615151 3.65927 0.684479 3.391C0.768879 3.07149 0.89246 2.75197 1.0281 2.42944C1.16978 2.09184 1.30843 1.75424 1.4501 1.41965C1.56163 1.1544 1.73043 0.886123 1.9776 0.660051C2.22176 0.436994 2.53224 0.247096 2.8608 0.156667C3.19538 0.0511673 3.56011 0.0360941 3.89168 0.0843228C4.22627 0.132551 4.53674 0.241067 4.82611 0.388767C5.34156 0.644982 5.78767 1.14535 6.01073 1.69396C6.23077 2.24557 6.26694 2.81829 6.1946 3.36689C6.11623 3.88233 5.94743 4.40079 5.60983 4.87403C5.28127 5.34728 4.72363 5.73612 4.11474 5.8597C3.59026 5.96822 3.07179 5.87779 2.64075 5.69392C2.20368 5.50703 1.83895 5.22972 1.52546 4.91322C1.38077 4.76853 1.10949 4.66002 0.973849 4.44902C0.916577 4.36462 0.853275 4.24103 0.792989 4.12046C0.741746 3.99085 0.699547 3.8552 0.690504 3.7497C0.68749 3.65626 0.693521 3.5598 0.645292 3.48143C0.542806 3.30057 0.566921 3.15589 0.702564 3.08957C0.838207 3.02024 1.09743 3.02326 1.49231 3.0323C1.66412 3.0323 1.88718 2.99613 2.01077 3.02627C2.01679 3.02627 2.02584 3.02928 2.03187 3.02928C2.27 3.05943 2.34535 3.07752 2.36343 3.12273C2.37549 3.16795 2.36043 3.23124 2.38153 3.27947C2.53224 3.50253 2.77639 3.70449 3.05371 3.80999C3.32801 3.91549 3.61135 3.92152 3.79824 3.82807C3.91579 3.77382 4.02732 3.69846 4.11775 3.57789C4.20818 3.45732 4.27148 3.29153 4.26847 3.1167C4.26545 3.02024 4.18105 2.92379 4.24134 2.8424C4.2323 2.79718 4.21421 2.75197 4.19311 2.71279C4.17804 2.67059 4.15996 2.63441 4.15091 2.59824C4.12378 2.45657 4.05446 2.3571 3.98211 2.2938C3.90073 2.21543 3.78316 2.14911 3.68369 2.09184C3.67766 2.09184 3.65958 2.11897 3.64752 2.11595Z" fill="#690811"/>
</svg>
