<svg width="30" height="32" viewBox="0 0 30 32" fill="none" xmlns="http://www.w3.org/2000/svg">
<path d="M15.8069 12.6344C16.1145 12.0853 17.275 10.1928 17.9214 8.91945C19.4128 5.97945 20.9743 3.08229 23.2757 0.586208C23.6339 0.196804 24.0584 -0.566425 26.3792 0.699138C28.7935 2.01922 29.9267 3.29257 29.4127 4.03244C28.1666 5.8237 26.5739 7.44361 25.9742 9.56587C25.0942 12.6772 23.2718 15.2706 21.905 18.1172C21.2897 19.3944 20.616 20.6405 19.9463 21.8866L18.9494 23.7596L18.4665 24.7059L17.7656 26.1C17.4891 26.6451 17.2282 27.2137 16.9362 27.7549C16.6441 28.2962 16.3248 28.8024 15.986 29.258C15.2968 30.1692 14.5141 30.8702 13.5678 31.3452C12.6372 31.8359 11.4689 32.0306 10.3825 31.9255C9.29607 31.8086 8.31087 31.4231 7.40745 30.7533C6.62865 30.1848 5.93551 29.3671 5.34362 28.4091C5.04767 27.9302 4.78676 27.4123 4.52975 26.9099L4.14814 26.1584L3.96121 25.7845C3.94174 25.7495 3.93397 25.7261 3.93008 25.7145L3.91061 25.6638L3.87166 25.5626C3.44331 24.48 3.03834 23.3819 2.5438 22.3383C2.31016 21.8477 1.55082 21.5517 1.27824 21.026C1.05238 20.5899 0.6396 19.8851 0.581189 19.3516C0.553931 19.1218 0.550034 18.8687 0.359226 18.748C-0.516933 18.1795 0.164536 17.4669 2.90205 16.1507C3.50562 15.8625 4.20266 15.3368 4.70889 15.294C4.72836 15.294 4.77118 15.2862 4.79454 15.2823C6.71431 14.9124 6.36385 15.9599 6.77662 16.544C7.78518 17.9809 8.75089 19.4411 9.70882 20.9131L10.0671 21.466C10.18 21.6374 10.3397 21.8905 10.3319 21.8671L10.5071 22.0969C10.6161 22.2449 10.7291 22.385 10.8693 22.4746C10.9549 22.5291 11.0562 22.5798 11.1613 22.5798C11.2703 22.5836 11.3755 22.533 11.4495 22.4512C11.5974 22.2838 11.6597 21.9956 11.5974 21.7386C11.5819 21.6685 11.5001 21.5595 11.4417 21.4972L11.4066 21.4544C11.4066 21.4427 11.3911 21.4583 11.4027 21.4271C11.4183 21.3921 11.43 21.357 11.4495 21.3259C11.5157 21.1935 11.6013 21.0689 11.7221 20.9676L11.7143 20.9754C11.9284 20.3835 12.0647 19.7527 12.3685 19.2075C13.5055 17.1437 14.4673 14.8695 15.7485 12.9926C15.7913 12.9108 15.7407 12.7512 15.8069 12.6344Z" fill="#FFD380"/>
</svg>
